<?xml version="1.0" encoding="utf-8"?>
<!-- Generator: Adobe Illustrator 15.1.0, SVG Export Plug-In . SVG Version: 6.00 Build 0)  -->
<!DOCTYPE svg PUBLIC "-//W3C//DTD SVG 1.1//EN" "http://www.w3.org/Graphics/SVG/1.1/DTD/svg11.dtd">
<svg version="1.1" id="Layer_1" xmlns="http://www.w3.org/2000/svg" xmlns:xlink="http://www.w3.org/1999/xlink" x="0px" y="0px"
	 width="574px" height="116px" viewBox="0 0 574 116" enable-background="new 0 0 574 116" xml:space="preserve">
<g>
	<rect x="388.244" y="30.414" fill="#FFFFFF" width="1.588" height="56.885"/>
	<path fill="#00A94F" d="M27.322,78.023c0,8.272,6.767,15.036,15.037,15.036h38.353c8.27,0,15.035-6.764,15.035-15.036V39.741
		c0-8.27-6.765-15.036-15.035-15.036H42.359c-8.27,0-15.037,6.766-15.037,15.036V78.023z"/>
	<line fill="#FFFFFF" x1="389.077" y1="30.414" x2="389.077" y2="87.299"/>
	<g>
		<path fill="#FFFFFF" d="M133.971,47.491v18.611l2.431,0.091l-0.28,11.361h-4.396l-0.187-7.296h-14.961l-0.282,7.296h-4.394
			l-0.187-11.313l2.01-0.139c0.982-1.407,1.778-3.042,2.245-4.678c0.795-2.619,1.167-5.378,1.167-8.229v-5.704H133.971z
			 M122.189,54.877c0,2.432-0.375,4.863-0.983,7.061c-0.42,1.452-1.026,2.853-1.682,4.068h8.837V51.746h-6.171V54.877z"/>
		<path fill="#FFFFFF" d="M162.165,58.665c0,8.369-5.892,12.11-11.69,12.11c-6.404,0-11.408-4.394-11.408-11.735
			c0-7.48,4.91-12.063,11.782-12.063C157.628,46.976,162.165,51.746,162.165,58.665z M145.005,58.897
			c0,4.397,2.197,7.718,5.657,7.718c3.274,0,5.564-3.181,5.564-7.81c0-3.554-1.59-7.668-5.517-7.668
			C146.642,51.138,145.005,55.112,145.005,58.897z"/>
		<path fill="#FFFFFF" d="M185.495,41.179c0,0-3.431,0.607-5.096,0.935c-3.553,0.703-5.984,1.497-7.621,3.554
			c-1.403,1.729-2.292,4.394-2.479,6.499h0.187c1.449-2.9,4.396-4.676,7.668-4.676c5.938,0,9.958,4.301,9.958,11.314
			c0,7.388-4.441,11.969-11.173,11.969c-7.995,0-11.362-6.922-11.362-15.102c0-5.611,1.356-10.146,4.255-13.278
			c2.244-2.711,5.393-4.012,9.678-4.723c2.167-0.36,6.267-1.075,6.267-1.075L185.495,41.179z M176.798,51.559
			c-1.917,0-3.319,1.028-4.114,2.43c-0.749,1.216-1.169,2.759-1.169,4.63c0,3.365,1.542,7.996,5.424,7.996
			c3.881,0,5.283-3.884,5.283-7.576C182.222,55.72,180.959,51.559,176.798,51.559z"/>
		<path fill="#FFFFFF" d="M192.835,55.064c0-2.993-0.093-5.422-0.186-7.573h5.048l0.281,3.505h0.095
			c1.682-2.571,4.347-4.021,7.808-4.021c5.237,0,9.585,4.489,9.585,11.595c0,8.228-5.191,12.203-10.38,12.203
			c-2.852,0-5.237-1.216-6.406-3.038h-0.093v11.781h-5.752V55.064z M198.587,60.723c0,0.56,0.045,1.075,0.141,1.59
			c0.606,2.338,2.617,4.02,5.096,4.02c3.647,0,5.797-3.038,5.797-7.527c0-4.022-1.964-7.294-5.658-7.294
			c-2.384,0-4.581,1.73-5.189,4.254c-0.094,0.468-0.187,0.982-0.187,1.45V60.723z"/>
		<path fill="#FFFFFF" d="M241.835,58.665c0,8.369-5.891,12.11-11.688,12.11c-6.406,0-11.409-4.394-11.409-11.735
			c0-7.48,4.909-12.063,11.782-12.063C237.3,46.976,241.835,51.746,241.835,58.665z M224.677,58.897
			c0,4.397,2.197,7.718,5.657,7.718c3.272,0,5.565-3.181,5.565-7.81c0-3.554-1.591-7.668-5.518-7.668
			C226.312,51.138,224.677,55.112,224.677,58.897z"/>
		<path fill="#FFFFFF" d="M261.567,47.491v4.535h-9.305v18.231h-5.751V47.491H261.567z"/>
		<path fill="#FFFFFF" d="M286.206,58.665c0,8.369-5.891,12.11-11.69,12.11c-6.403,0-11.408-4.394-11.408-11.735
			c0-7.48,4.909-12.063,11.784-12.063C281.672,46.976,286.206,51.746,286.206,58.665z M269.047,58.897
			c0,4.397,2.198,7.718,5.658,7.718c3.271,0,5.563-3.181,5.563-7.81c0-3.554-1.591-7.668-5.518-7.668
			C270.683,51.138,269.047,55.112,269.047,58.897z"/>
		<path fill="#FFFFFF" d="M320.198,47.491v18.611l2.43,0.091l-0.278,11.361h-4.398l-0.186-7.296h-14.96l-0.285,7.296h-4.392
			l-0.189-11.313l2.012-0.139c0.982-1.407,1.777-3.042,2.246-4.678c0.792-2.619,1.166-5.378,1.166-8.229v-5.704H320.198z
			 M308.412,54.877c0,2.432-0.373,4.863-0.981,7.061c-0.418,1.452-1.026,2.853-1.682,4.068h8.835V51.746h-6.172V54.877z"/>
		<path fill="#FFFFFF" d="M332.636,47.491v8.696h8.789v-8.696h5.75v22.767h-5.75v-9.582h-8.789v9.582h-5.753V47.491H332.636z"/>
		<path fill="#FFFFFF" d="M372.002,70.258h-5.703v-9.021h-2.154c-1.59,0-2.711,0.607-3.503,1.494
			c-1.451,1.265-2.012,3.694-2.76,5.658c-0.282,0.656-0.561,1.169-0.935,1.869h-6.127c0.513-0.699,0.981-1.587,1.4-2.569
			c0.843-1.961,1.641-4.958,3.37-6.547c0.7-0.699,1.588-1.26,2.757-1.495v-0.139c-2.757-0.281-5.937-2.058-5.937-5.658
			c0-2.571,1.45-4.208,3.459-5.237c1.965-1.028,5.005-1.45,8.044-1.45c3.177,0,6.076,0.234,8.088,0.515V70.258z M366.299,50.997
			c-0.798-0.092-1.59-0.185-2.857-0.185c-2.521,0-5.094,0.841-5.094,3.412c0,2.385,2.851,3.414,5.094,3.414
			c1.359,0,2.107,0,2.857-0.047V50.997z"/>
	</g>
	<g>
		<path fill="#FFFFFF" d="M422.278,64.841c0,1.961,0.096,3.877,0.329,5.417h-3.693l-0.329-2.848h-0.14
			c-1.261,1.777-3.694,3.364-6.919,3.364c-4.581,0-6.919-3.228-6.919-6.498c0-5.471,4.859-8.463,13.604-8.416v-0.469
			c0-1.822-0.514-5.235-5.143-5.189c-2.15,0-4.349,0.608-5.939,1.684l-0.935-2.759c1.873-1.169,4.629-1.964,7.483-1.964
			c6.915,0,8.601,4.724,8.601,9.213V64.841z M418.306,58.712c-4.488-0.092-9.586,0.702-9.586,5.096c0,2.711,1.777,3.928,3.833,3.928
			c2.993,0,4.911-1.87,5.563-3.789c0.143-0.469,0.189-0.931,0.189-1.309V58.712z"/>
		<path fill="#FFFFFF" d="M447.528,47.632v22.625h-4.118V50.858h-10.519v19.399h-4.112V47.632H447.528z"/>
		<path fill="#FFFFFF" d="M469.362,47.632v3.226h-7.064v19.399h-4.112V50.858h-7.059v-3.226H469.362z"/>
		<path fill="#FFFFFF" d="M474.64,59.695c0.096,5.564,3.603,7.852,7.762,7.852c2.946,0,4.771-0.51,6.267-1.166l0.748,2.946
			c-1.448,0.653-3.973,1.448-7.571,1.448c-6.971,0-11.13-4.628-11.13-11.454c0-6.827,4.021-12.157,10.616-12.157
			c7.433,0,9.349,6.454,9.349,10.615c0,0.843-0.048,1.449-0.143,1.917H474.64z M486.704,56.748c0.048-2.571-1.074-6.639-5.702-6.639
			c-4.208,0-5.985,3.788-6.312,6.639H486.704z"/>
		<path fill="#FFFFFF" d="M499.845,47.632v9.819h0.982l8.459-9.819h5.005l-9.82,10.193c3.649,0.419,5.844,2.851,7.622,6.917
			c0.608,1.499,1.355,3.697,2.382,5.515h-4.299c-0.611-0.978-1.356-2.756-2.106-4.625c-1.539-3.649-3.644-5.33-7.433-5.33h-0.792
			v9.955h-4.07V47.632H499.845z"/>
		<path fill="#FFFFFF" d="M534.535,64.841c0,1.961,0.092,3.877,0.326,5.417h-3.69l-0.329-2.848h-0.141
			c-1.267,1.777-3.693,3.364-6.919,3.364c-4.587,0-6.921-3.228-6.921-6.498c0-5.471,4.862-8.463,13.606-8.416v-0.469
			c0-1.822-0.517-5.235-5.146-5.189c-2.148,0-4.346,0.608-5.938,1.684l-0.937-2.759c1.871-1.169,4.632-1.964,7.482-1.964
			c6.919,0,8.604,4.724,8.604,9.213V64.841z M530.559,58.712c-4.489-0.092-9.582,0.702-9.582,5.096c0,2.711,1.773,3.928,3.832,3.928
			c2.991,0,4.907-1.87,5.563-3.789c0.139-0.469,0.187-0.931,0.187-1.309V58.712z"/>
	</g>
	<path fill-rule="evenodd" clip-rule="evenodd" fill="#FFFFFF" d="M79.522,46.473h-5.569v-5.577c0-6.95-5.633-12.569-12.582-12.569
		c-6.937,0-12.57,5.619-12.57,12.569v5.577h-5.575c-6.945,0-12.576,5.632-12.576,12.569c0,6.949,5.631,12.575,12.576,12.575h5.575
		v5.579c0,6.938,5.633,12.567,12.57,12.567c6.949,0,12.582-5.629,12.582-12.567v-5.579h5.569c6.936,0,12.569-5.626,12.569-12.575
		C92.091,52.105,86.458,46.473,79.522,46.473z M55.787,40.896c0-3.09,2.501-5.577,5.584-5.577c3.088,0,5.59,2.487,5.59,5.577v5.577
		H55.787V40.896z M66.961,53.465v11.167H55.787V53.465H66.961z M43.226,64.632c-3.084,0-5.592-2.501-5.592-5.59
		c0-3.083,2.508-5.577,5.592-5.577h5.575v11.167H43.226z M66.961,77.196c0,3.079-2.501,5.582-5.59,5.582
		c-3.083,0-5.584-2.503-5.584-5.582v-5.579h11.174V77.196z M79.522,64.632h-5.569V53.465h5.569c3.076,0,5.583,2.495,5.583,5.577
		C85.105,62.131,82.598,64.632,79.522,64.632z"/>
</g>
</svg>
